<svg width="24" height="25" viewBox="0 0 24 25" fill="none" xmlns="http://www.w3.org/2000/svg">
<path d="M18 3V9M21 6H15" stroke="#21201C" stroke-width="1.5" stroke-linecap="round" stroke-linejoin="round"/>
<path fill-rule="evenodd" clip-rule="evenodd" d="M11.2579 1.17464C11.0811 0.876019 10.7003 0.778457 10.4017 0.95527C9.25931 1.63165 8.53706 2.74647 8.32232 3.95861C6.93554 2.73944 5.11661 2.00012 3.125 2.00012C3.02652 2.00012 2.92847 2.00193 2.83086 2.00551C2.38019 2.02206 2.02194 2.38031 2.00539 2.83099C2.00181 2.92859 2 3.02664 2 3.12512C2 7.18531 5.07267 10.5278 9.01953 10.9542C9.04437 11.1426 9.08177 11.3316 9.13229 11.5201C9.22212 11.8554 9.56254 12.0519 9.89776 11.9621C12.2317 11.3367 13.6167 8.93774 12.9914 6.60383C12.9015 6.26861 12.5611 6.07206 12.2259 6.16188C11.5627 6.33959 10.9761 6.66051 10.4905 7.08246C10.4445 6.96131 10.3956 6.84159 10.344 6.72338C11.9271 5.36718 12.3566 3.03024 11.2579 1.17464ZM10.7365 2.5811C10.7813 2.4505 10.7117 2.30831 10.5811 2.26352C10.4505 2.21873 10.3083 2.28829 10.2635 2.4189L8.39105 7.87852L3.67372 3.32022C3.57443 3.22428 3.41616 3.22699 3.32022 3.32628C3.22428 3.42557 3.22699 3.58384 3.32628 3.67978L8.32628 8.51123L10.1353 10.2593L9.78294 10.876C9.71444 10.9958 9.75609 11.1486 9.87597 11.2171C9.99584 11.2856 10.1486 11.2439 10.2171 11.124L10.6659 10.3386L12.2171 7.62403C12.2856 7.50416 12.2439 7.35144 12.124 7.28294C12.0042 7.21444 11.8514 7.25609 11.7829 7.37597L10.3913 9.81134L8.78806 8.26215L10.7365 2.5811Z" fill="#21201C"/>
<path fill-rule="evenodd" clip-rule="evenodd" d="M4 11C3.44772 11 3 11.4477 3 12V19C3 21.2091 4.79086 23 7 23H17C19.2091 23 21 21.2091 21 19V12C21 11.4477 20.5523 11 20 11H4ZM7 12.25C6.58579 12.25 6.25 12.5858 6.25 13C6.25 13.4142 6.58579 13.75 7 13.75H17C17.4142 13.75 17.75 13.4142 17.75 13C17.75 12.5858 17.4142 12.25 17 12.25H7Z" fill="#21201C"/>
</svg>
