<svg width="24" height="24" viewBox="0 0 24 24" fill="none" xmlns="http://www.w3.org/2000/svg">
<path d="M7 5.77492C6.08333 6.50825 5.35433 7.41258 4.813 8.48792C4.27167 9.56325 4.00067 10.7339 4 11.9999C4 13.9166 4.58333 15.5876 5.75 17.0129C6.91667 18.4382 8.39167 19.3589 10.175 19.7749C10.425 19.8416 10.625 19.9876 10.775 20.2129C10.925 20.4382 11 20.6839 11 20.9499C11 21.2159 10.9083 21.4409 10.725 21.6249C10.5417 21.8089 10.3333 21.8756 10.1 21.8249C7.76667 21.3916 5.83333 20.2626 4.3 18.4379C2.76667 16.6132 2 14.4672 2 11.9999C2 10.4832 2.30433 9.08325 2.913 7.79992C3.52167 6.51658 4.35067 5.41658 5.4 4.49992H4C3.71667 4.49992 3.47933 4.40392 3.288 4.21192C3.09667 4.01992 3.00067 3.78258 3 3.49992C2.99933 3.21725 3.09533 2.97992 3.288 2.78792C3.48067 2.59592 3.718 2.49992 4 2.49992H8C8.28333 2.49992 8.521 2.59592 8.713 2.78792C8.905 2.97992 9.00067 3.21725 9 3.49992V7.49992C9 7.78325 8.904 8.02092 8.712 8.21292C8.52 8.40492 8.28267 8.50058 8 8.49992C7.71733 8.49925 7.48 8.40325 7.288 8.21192C7.096 8.02058 7 7.78325 7 7.49992V5.77492ZM18.6 19.4999H20C20.2833 19.4999 20.521 19.5959 20.713 19.7879C20.905 19.9799 21.0007 20.2172 21 20.4999C20.9993 20.7826 20.9033 21.0202 20.712 21.2129C20.5207 21.4056 20.2833 21.5012 20 21.4999H16C15.7167 21.4999 15.4793 21.4039 15.288 21.2119C15.0967 21.0199 15.0007 20.7826 15 20.4999V16.4999C15 16.2166 15.096 15.9792 15.288 15.7879C15.48 15.5966 15.7173 15.5006 16 15.4999C16.2827 15.4992 16.5203 15.5952 16.713 15.7879C16.9057 15.9806 17.0013 16.2179 17 16.4999V18.2249C17.9167 17.4749 18.646 16.5666 19.188 15.4999C19.73 14.4332 20.0007 13.2666 20 11.9999C20 10.0832 19.4167 8.41258 18.25 6.98792C17.0833 5.56325 15.6083 4.64225 13.825 4.22492C13.575 4.15825 13.375 4.01258 13.225 3.78792C13.075 3.56325 13 3.31725 13 3.04992C13 2.78258 13.0917 2.55758 13.275 2.37492C13.4583 2.19225 13.6667 2.12558 13.9 2.17492C16.2333 2.60825 18.1667 3.73758 19.7 5.56292C21.2333 7.38825 22 9.53392 22 11.9999C22 13.5166 21.6957 14.9166 21.087 16.1999C20.4783 17.4832 19.6493 18.5832 18.6 19.4999Z" fill="#FF6BCD"/>
</svg>
