<svg width="24" height="24" viewBox="0 0 24 24" fill="none" xmlns="http://www.w3.org/2000/svg">
<path fill-rule="evenodd" clip-rule="evenodd" d="M4 10C3.44772 10 3 10.4477 3 11V18C3 20.2091 4.79086 22 7 22H17C19.2091 22 21 20.2091 21 18V11C21 10.4477 20.5523 10 20 10H4ZM7 11.25C6.58579 11.25 6.25 11.5858 6.25 12C6.25 12.4142 6.58579 12.75 7 12.75H17C17.4142 12.75 17.75 12.4142 17.75 12C17.75 11.5858 17.4142 11.25 17 11.25H7Z" fill="#21201C"/>
<path d="M12 10.5V7.75M17 1.5L12 5V7.75M12 7.75L9 6.5" stroke="#21201C" stroke-width="1.5" stroke-linecap="round" stroke-linejoin="round"/>
</svg>
