<svg width="24" height="24" viewBox="0 0 24 24" fill="none" xmlns="http://www.w3.org/2000/svg">
<path d="M17.3492 12C18.0047 11.922 18.5657 11.796 18.9092 11.598C19.5927 11.1973 20.0899 10.5426 20.2923 9.77676C20.4948 9.01087 20.3862 8.19598 19.9901 7.50992C19.5939 6.82385 18.9426 6.32232 18.178 6.11475C17.4135 5.90719 16.5979 6.01045 15.9092 6.402C15.5657 6.6 15.1757 7.023 14.7812 7.5525C15.0422 6.945 15.2132 6.396 15.2132 6C15.2132 5.20435 14.8972 4.44129 14.3346 3.87868C13.7719 3.31607 13.0089 3 12.2132 3C11.4176 3 10.6545 3.31607 10.0919 3.87868C9.5293 4.44129 9.21323 5.20435 9.21323 6C9.21323 6.396 9.38423 6.945 9.64523 7.5525C9.25073 7.023 8.86073 6.6 8.51723 6.402C7.82856 6.01045 7.01297 5.90719 6.24844 6.11475C5.48391 6.32232 4.83252 6.82385 4.43641 7.50992C4.0403 8.19598 3.93163 9.01087 4.13412 9.77676C4.33661 10.5426 4.83381 11.1973 5.51723 11.598C5.86073 11.796 6.42173 11.922 7.07723 12C6.42173 12.078 5.86073 12.204 5.51723 12.402C5.1733 12.5975 4.87144 12.8592 4.62903 13.1719C4.38663 13.4846 4.20847 13.8421 4.1048 14.2239C4.00114 14.6057 3.97403 15.0043 4.02503 15.3966C4.07602 15.789 4.20412 16.1674 4.40194 16.51C4.59977 16.8526 4.86341 17.1527 5.1777 17.3931C5.49198 17.6334 5.8507 17.8092 6.23319 17.9103C6.61569 18.0114 7.01442 18.0359 7.40641 17.9823C7.7984 17.9287 8.17592 17.7981 8.51723 17.598C8.86073 17.4 9.25073 16.977 9.64523 16.4475C9.38423 17.055 9.21323 17.604 9.21323 18C9.21323 18.7956 9.5293 19.5587 10.0919 20.1213C10.6545 20.6839 11.4176 21 12.2132 21C13.0089 21 13.7719 20.6839 14.3346 20.1213C14.8972 19.5587 15.2132 18.7956 15.2132 18C15.2132 17.604 15.0422 17.055 14.7812 16.4475C15.1757 16.977 15.5657 17.4 15.9092 17.598C16.2505 17.7981 16.6281 17.9287 17.0201 17.9823C17.4121 18.0359 17.8108 18.0114 18.1933 17.9103C18.5758 17.8092 18.9345 17.6334 19.2488 17.3931C19.5631 17.1527 19.8267 16.8526 20.0245 16.51C20.2223 16.1674 20.3504 15.789 20.4014 15.3966C20.4524 15.0043 20.4253 14.6057 20.3217 14.2239C20.218 13.8421 20.0398 13.4846 19.7974 13.1719C19.555 12.8592 19.2532 12.5975 18.9092 12.402C18.5657 12.204 18.0047 12.078 17.3492 12ZM13.7132 6C13.6961 6.10361 13.6736 6.20625 13.6457 6.3075C13.5867 6.5075 13.4952 6.7495 13.3712 7.0335C13.0854 7.66147 12.7665 8.27383 12.4157 8.868L12.2132 9.213L12.0107 8.868C11.66 8.27383 11.3411 7.66147 11.0552 7.0335C10.9482 6.79768 10.8565 6.55517 10.7807 6.3075C10.7529 6.20625 10.7303 6.10361 10.7132 6C10.7132 5.60218 10.8713 5.22064 11.1526 4.93934C11.4339 4.65804 11.8154 4.5 12.2132 4.5C12.6111 4.5 12.9926 4.65804 13.2739 4.93934C13.5552 5.22064 13.7132 5.60218 13.7132 6ZM5.71823 8.25C5.91715 7.90549 6.24478 7.65411 6.62904 7.55115C7.01329 7.44819 7.42272 7.5021 7.76723 7.701C7.84893 7.76783 7.92703 7.83893 8.00123 7.914C8.14323 8.064 8.30623 8.264 8.49023 8.514C8.85773 9.0135 9.24323 9.6345 9.60323 10.2585L9.79823 10.6065L9.40073 10.6095C8.71013 10.6162 8.01965 10.5861 7.33223 10.5195C7.07482 10.4945 6.81928 10.4529 6.56723 10.395C6.46562 10.3683 6.36548 10.3362 6.26723 10.299C5.92272 10.1001 5.67134 9.77246 5.56839 9.3882C5.46543 9.00394 5.51933 8.59452 5.71823 8.25ZM7.76723 16.299C7.4229 16.4948 7.0151 16.5464 6.63284 16.4426C6.25057 16.3388 5.92488 16.0881 5.72682 15.745C5.52877 15.402 5.47443 14.9946 5.57568 14.6116C5.67692 14.2287 5.92552 13.9013 6.26723 13.701L6.33773 13.671C6.39273 13.651 6.46923 13.629 6.56723 13.605C6.76923 13.557 7.02423 13.5155 7.33223 13.4805C8.01965 13.4139 8.71013 13.3838 9.40073 13.3905C9.53573 13.3905 9.66873 13.3915 9.79973 13.3935L9.60323 13.7415C9.24323 14.3655 8.85773 14.9865 8.49023 15.486C8.33983 15.6964 8.17599 15.8968 7.99973 16.086C7.92602 16.161 7.84841 16.2321 7.76723 16.299ZM13.7132 18C13.7132 18.3978 13.5552 18.7794 13.2739 19.0607C12.9926 19.342 12.6111 19.5 12.2132 19.5C11.8154 19.5 11.4339 19.342 11.1526 19.0607C10.8713 18.7794 10.7132 18.3978 10.7132 18C10.7303 17.8959 10.7528 17.7927 10.7807 17.691C10.8387 17.493 10.9302 17.2515 11.0552 16.9665C11.3042 16.3995 11.6492 15.7545 12.0107 15.132L12.2132 14.787L12.4157 15.132C12.7772 15.7545 13.1207 16.3995 13.3712 16.9665C13.4952 17.2515 13.5867 17.4935 13.6457 17.6925C13.6765 17.793 13.6991 17.8958 13.7132 18ZM18.7082 8.25C18.9071 8.59452 18.961 9.00394 18.8581 9.3882C18.7551 9.77246 18.5037 10.1001 18.1592 10.299C18.061 10.3362 17.9608 10.3683 17.8592 10.395C17.6572 10.443 17.4022 10.4845 17.0942 10.5195C16.4762 10.587 15.7472 10.611 15.0257 10.6095C14.8907 10.6095 14.7577 10.6085 14.6267 10.6065L14.8232 10.2585C15.1832 9.6345 15.5687 9.0135 15.9362 8.514C16.0866 8.30364 16.2505 8.10322 16.4267 7.914C16.4967 7.84 16.5537 7.785 16.5977 7.749L16.6592 7.701C17.0038 7.5021 17.4132 7.44819 17.7974 7.55115C18.1817 7.65411 18.5093 7.90549 18.7082 8.25ZM16.6592 16.299C16.5781 16.2326 16.5005 16.162 16.4267 16.0875C16.2505 15.8983 16.0866 15.6979 15.9362 15.4875C15.5345 14.9251 15.163 14.3418 14.8232 13.74L14.6282 13.392L15.0257 13.389C15.7457 13.3875 16.4762 13.4115 17.0942 13.479C17.4022 13.514 17.6572 13.5555 17.8592 13.6035C17.9572 13.6275 18.0337 13.6495 18.0887 13.6695L18.1607 13.6995C18.3327 13.7973 18.4836 13.9281 18.6048 14.0844C18.726 14.2408 18.8151 14.4196 18.8669 14.6105C18.9188 14.8014 18.9323 15.0006 18.9068 15.1968C18.8813 15.393 18.8173 15.5822 18.7184 15.7535C18.6195 15.9248 18.4876 16.0749 18.3305 16.195C18.1734 16.3152 17.994 16.4031 17.8028 16.4536C17.6115 16.5042 17.4121 16.5164 17.2161 16.4896C17.0201 16.4628 16.8314 16.3975 16.6607 16.2975L16.6592 16.299ZM12.2132 13.5C11.8154 13.5 11.4339 13.342 11.1526 13.0607C10.8713 12.7794 10.7132 12.3978 10.7132 12C10.7132 11.6022 10.8713 11.2206 11.1526 10.9393C11.4339 10.658 11.8154 10.5 12.2132 10.5C12.6111 10.5 12.9926 10.658 13.2739 10.9393C13.5552 11.2206 13.7132 11.6022 13.7132 12C13.7132 12.3978 13.5552 12.7794 13.2739 13.0607C12.9926 13.342 12.6111 13.5 12.2132 13.5Z" fill="#FF6BCD"/>
</svg>
