<svg width="97" height="31" viewBox="0 0 97 31" fill="none" xmlns="http://www.w3.org/2000/svg">
<path d="M86.1328 28.2422C86.5495 27.9557 87.0443 27.5911 87.6172 27.1484C88.2161 26.6797 88.8151 26.1849 89.4141 25.6641C90.013 25.1432 90.5729 24.5964 91.0938 24.0234C91.6146 23.4505 92.0182 22.9036 92.3047 22.3828C92.6172 21.8359 92.7734 21.3281 92.7734 20.8594C92.7734 20.3906 92.5391 20 92.0703 19.6875C91.237 19.6875 90.3255 19.7266 89.3359 19.8047C88.3464 19.8568 87.3568 19.8828 86.3672 19.8828C85.3776 19.8568 84.4141 19.7656 83.4766 19.6094C82.5651 19.4531 81.7448 19.1667 81.0156 18.75C80.2865 18.3333 79.7005 17.7474 79.2578 16.9922C78.8411 16.2109 78.6328 15.2214 78.6328 14.0234C78.6328 12.6172 78.8932 11.3542 79.4141 10.2344C79.9609 9.08854 80.6771 8.08594 81.5625 7.22656C82.4479 6.34115 83.4375 5.57292 84.5312 4.92188C85.651 4.24479 86.7708 3.67188 87.8906 3.20312C88.5677 3.38542 89.1927 3.71094 89.7656 4.17969C90.3385 4.64844 90.8333 5.16927 91.25 5.74219C91.0677 6.3151 90.7031 6.75781 90.1562 7.07031C89.6354 7.38281 89.0234 7.65625 88.3203 7.89062C87.6432 8.125 86.9271 8.3724 86.1719 8.63281C85.4167 8.89323 84.7266 9.24479 84.1016 9.6875C83.5026 10.1042 82.9948 10.6641 82.5781 11.3672C82.1615 12.0443 81.9531 12.9427 81.9531 14.0625C81.9531 14.8958 82.1615 15.5078 82.5781 15.8984C82.9948 16.2891 83.5417 16.5625 84.2188 16.7188C84.8958 16.849 85.6641 16.901 86.5234 16.875C87.3828 16.8229 88.2552 16.7578 89.1406 16.6797C90.0521 16.6016 90.9375 16.5625 91.7969 16.5625C92.6562 16.5365 93.4245 16.6406 94.1016 16.875C94.7786 17.0833 95.3125 17.4349 95.7031 17.9297C96.1198 18.4245 96.3281 19.1536 96.3281 20.1172C96.3281 20.5339 96.1849 21.0677 95.8984 21.7188C95.638 22.3698 95.2734 23.0729 94.8047 23.8281C94.362 24.5573 93.8281 25.2865 93.2031 26.0156C92.6042 26.7448 91.9661 27.4089 91.2891 28.0078C90.638 28.5807 89.974 29.0625 89.2969 29.4531C88.6458 29.8177 88.0339 30 87.4609 30C86.9141 30 86.5495 29.8047 86.3672 29.4141C86.2109 29.0234 86.1328 28.6328 86.1328 28.2422Z" fill="#FF6BCD"/>
<path d="M71.0547 15.3516C71.0547 15.1953 71.0547 14.9479 71.0547 14.6094C71.0807 14.2448 71.0938 13.8672 71.0938 13.4766C71.1198 13.0859 71.1328 12.7083 71.1328 12.3438C71.1589 11.9792 71.1719 11.7188 71.1719 11.5625C71.4583 11.1458 71.8229 10.8073 72.2656 10.5469C72.7344 10.2865 73.2031 10.0781 73.6719 9.92188C73.75 11.3281 73.9714 12.8255 74.3359 14.4141C74.7005 16.0026 75.0911 17.6042 75.5078 19.2188C75.9245 20.8073 76.2891 22.3828 76.6016 23.9453C76.9401 25.5078 77.1094 26.9661 77.1094 28.3203C77.1094 29.4922 76.5104 30.0781 75.3125 30.0781C74.5833 30.0781 73.9714 29.7786 73.4766 29.1797C72.9818 28.5807 72.5781 27.8255 72.2656 26.9141C71.9792 25.9766 71.7448 24.9479 71.5625 23.8281C71.3802 22.6823 71.25 21.5625 71.1719 20.4688C71.1198 19.375 71.0807 18.3724 71.0547 17.4609C71.0547 16.5495 71.0547 15.8464 71.0547 15.3516ZM71.6016 0.703125C72.0964 0.911458 72.513 1.25 72.8516 1.71875C73.1901 2.1875 73.3333 2.61719 73.2812 3.00781C73.2552 3.3724 72.9688 3.63281 72.4219 3.78906C71.875 3.91927 70.9635 3.76302 69.6875 3.32031C69.6875 2.61719 69.8177 2.00521 70.0781 1.48438C70.3646 0.963542 70.8724 0.703125 71.6016 0.703125Z" fill="#FF6BCD"/>
<path d="M57.6562 28.2422C58.0729 27.9557 58.5677 27.5911 59.1406 27.1484C59.7396 26.6797 60.3385 26.1849 60.9375 25.6641C61.5365 25.1432 62.0964 24.5964 62.6172 24.0234C63.138 23.4505 63.5417 22.9036 63.8281 22.3828C64.1406 21.8359 64.2969 21.3281 64.2969 20.8594C64.2969 20.3906 64.0625 20 63.5938 19.6875C62.7604 19.6875 61.849 19.7266 60.8594 19.8047C59.8698 19.8568 58.8802 19.8828 57.8906 19.8828C56.901 19.8568 55.9375 19.7656 55 19.6094C54.0885 19.4531 53.2682 19.1667 52.5391 18.75C51.8099 18.3333 51.224 17.7474 50.7812 16.9922C50.3646 16.2109 50.1562 15.2214 50.1562 14.0234C50.1562 12.6172 50.4167 11.3542 50.9375 10.2344C51.4844 9.08854 52.2005 8.08594 53.0859 7.22656C53.9714 6.34115 54.9609 5.57292 56.0547 4.92188C57.1745 4.24479 58.2943 3.67188 59.4141 3.20312C60.0911 3.38542 60.7161 3.71094 61.2891 4.17969C61.862 4.64844 62.3568 5.16927 62.7734 5.74219C62.5911 6.3151 62.2266 6.75781 61.6797 7.07031C61.1589 7.38281 60.5469 7.65625 59.8438 7.89062C59.1667 8.125 58.4505 8.3724 57.6953 8.63281C56.9401 8.89323 56.25 9.24479 55.625 9.6875C55.026 10.1042 54.5182 10.6641 54.1016 11.3672C53.6849 12.0443 53.4766 12.9427 53.4766 14.0625C53.4766 14.8958 53.6849 15.5078 54.1016 15.8984C54.5182 16.2891 55.0651 16.5625 55.7422 16.7188C56.4193 16.849 57.1875 16.901 58.0469 16.875C58.9062 16.8229 59.7786 16.7578 60.6641 16.6797C61.5755 16.6016 62.4609 16.5625 63.3203 16.5625C64.1797 16.5365 64.9479 16.6406 65.625 16.875C66.3021 17.0833 66.8359 17.4349 67.2266 17.9297C67.6432 18.4245 67.8516 19.1536 67.8516 20.1172C67.8516 20.5339 67.7083 21.0677 67.4219 21.7188C67.1615 22.3698 66.7969 23.0729 66.3281 23.8281C65.8854 24.5573 65.3516 25.2865 64.7266 26.0156C64.1276 26.7448 63.4896 27.4089 62.8125 28.0078C62.1615 28.5807 61.4974 29.0625 60.8203 29.4531C60.1693 29.8177 59.5573 30 58.9844 30C58.4375 30 58.0729 29.8047 57.8906 29.4141C57.7344 29.0234 57.6562 28.6328 57.6562 28.2422Z" fill="#FF6BCD"/>
<path d="M42.6953 24.9609C41.7057 25.638 40.8464 26.25 40.1172 26.7969C39.4141 27.3177 38.724 27.7604 38.0469 28.125C37.3698 28.4896 36.6406 28.763 35.8594 28.9453C35.1042 29.1276 34.1667 29.2188 33.0469 29.2188C30.625 29.2188 28.8281 28.5807 27.6562 27.3047C26.4844 26.0026 25.8984 24.0755 25.8984 21.5234C25.8984 20.5339 26.0286 19.5052 26.2891 18.4375C26.5495 17.3698 26.9271 16.3151 27.4219 15.2734C27.9427 14.2057 28.5547 13.2031 29.2578 12.2656C29.9609 11.3021 30.7552 10.4557 31.6406 9.72656C32.526 8.9974 33.4635 8.42448 34.4531 8.00781C35.4688 7.5651 36.5365 7.34375 37.6562 7.34375C39.5312 7.52604 41.0026 7.99479 42.0703 8.75C43.138 9.47917 43.9453 10.4297 44.4922 11.6016C45.0391 12.7474 45.4167 14.0365 45.625 15.4688C45.8333 16.875 45.9896 18.3333 46.0938 19.8438C46.224 21.3542 46.3802 22.8646 46.5625 24.375C46.7448 25.8854 47.1224 27.2786 47.6953 28.5547C47.3568 29.4141 47.0312 30.013 46.7188 30.3516C46.4323 30.7161 46.1068 30.7812 45.7422 30.5469C45.3776 30.3125 44.9479 29.7396 44.4531 28.8281C43.9844 27.9167 43.3984 26.6276 42.6953 24.9609ZM29.2188 21.6016C29.2188 23.0859 29.4922 24.1797 30.0391 24.8828C30.612 25.5599 31.6146 25.8984 33.0469 25.8984C34.1146 25.8984 35.1302 25.7161 36.0938 25.3516C37.0833 24.9609 37.9427 24.4401 38.6719 23.7891C39.401 23.112 39.987 22.3047 40.4297 21.3672C40.8724 20.4297 41.0938 19.388 41.0938 18.2422C41.0938 17.7734 41.1068 17.1224 41.1328 16.2891C41.1589 15.4297 41.1068 14.5833 40.9766 13.75C40.8464 12.9167 40.599 12.2005 40.2344 11.6016C39.8698 10.9766 39.3229 10.6641 38.5938 10.6641C37.2396 10.6641 35.9896 11.0156 34.8438 11.7188C33.6979 12.3958 32.7083 13.2682 31.875 14.3359C31.0417 15.4036 30.3906 16.5885 29.9219 17.8906C29.4531 19.1667 29.2188 20.4036 29.2188 21.6016Z" fill="#FF6BCD"/>
<path d="M0 19.1406C0 17.8125 0.169271 16.4714 0.507812 15.1172C0.872396 13.737 1.36719 12.4219 1.99219 11.1719C2.64323 9.92188 3.42448 8.76302 4.33594 7.69531C5.2474 6.60156 6.25 5.66406 7.34375 4.88281C8.46354 4.07552 9.67448 3.45052 10.9766 3.00781C12.2786 2.53906 13.6458 2.30469 15.0781 2.30469C16.5104 2.30469 17.7474 2.59115 18.7891 3.16406C19.8568 3.71094 20.7422 4.45312 21.4453 5.39062C22.1484 6.32812 22.6693 7.40885 23.0078 8.63281C23.3464 9.83073 23.5156 11.0547 23.5156 12.3047C23.5156 14.4922 23.1901 16.6536 22.5391 18.7891C21.888 20.8984 20.9245 22.7995 19.6484 24.4922C18.3724 26.1589 16.7839 27.513 14.8828 28.5547C13.0078 29.5703 10.8464 30.0781 8.39844 30.0781C6.9401 30.0781 5.67708 29.7526 4.60938 29.1016C3.56771 28.4245 2.69531 27.5651 1.99219 26.5234C1.3151 25.4557 0.807292 24.2839 0.46875 23.0078C0.15625 21.7057 0 20.4167 0 19.1406ZM3.32031 20C3.32031 20.7031 3.4375 21.4453 3.67188 22.2266C3.90625 23.0078 4.23177 23.724 4.64844 24.375C5.0651 25.026 5.58594 25.5729 6.21094 26.0156C6.86198 26.4583 7.59115 26.6797 8.39844 26.6797C10.1432 26.6797 11.7318 26.2891 13.1641 25.5078C14.5964 24.7005 15.8333 23.6719 16.875 22.4219C17.9167 21.1458 18.724 19.7266 19.2969 18.1641C19.8698 16.6016 20.1562 15.0521 20.1562 13.5156C20.1562 12.6302 20.1302 11.7188 20.0781 10.7812C20.026 9.84375 19.8568 8.9974 19.5703 8.24219C19.2839 7.46094 18.8281 6.83594 18.2031 6.36719C17.6042 5.8724 16.7318 5.625 15.5859 5.625C15.2214 5.625 14.7266 5.63802 14.1016 5.66406C13.5026 5.6901 12.9036 5.76823 12.3047 5.89844C11.7057 6.0026 11.1719 6.17188 10.7031 6.40625C10.2604 6.64062 10.0391 6.96615 10.0391 7.38281C10.0391 7.4349 10.0781 7.55208 10.1562 7.73438C10.2604 7.89062 10.3646 8.0599 10.4688 8.24219C10.5729 8.42448 10.6641 8.60677 10.7422 8.78906C10.8203 8.94531 10.8594 9.04948 10.8594 9.10156C10.8594 9.15365 10.7552 9.29688 10.5469 9.53125C10.3385 9.73958 10.1693 9.86979 10.0391 9.92188C8.73698 10.2604 7.64323 10.6901 6.75781 11.2109C5.89844 11.7057 5.20833 12.3568 4.6875 13.1641C4.19271 13.9714 3.84115 14.9349 3.63281 16.0547C3.42448 17.1745 3.32031 18.4896 3.32031 20Z" fill="#FF6BCD"/>
</svg>
